<svg width="24" height="24" viewBox="0 0 24 24" fill="none" xmlns="http://www.w3.org/2000/svg">
<g id="Icons">
<path id="Vector" d="M16.58 6.5059L9.8406 13.2543L7.41818 10.8241L7.41151 10.8174L7.40472 10.8109C7.21375 10.6264 6.98831 10.4813 6.74128 10.384C6.49424 10.2866 6.23046 10.2389 5.96498 10.2435C5.69949 10.2481 5.43751 10.3049 5.194 10.4108C4.95048 10.5166 4.73019 10.6694 4.54572 10.8603C4.36124 11.0513 4.21618 11.2767 4.11883 11.5238C4.02148 11.7708 3.97374 12.0346 3.97833 12.3001C3.98292 12.5656 4.03976 12.8275 4.1456 13.0711C4.2501 13.3115 4.40034 13.5293 4.58793 13.7123L8.41995 17.5443C8.42053 17.5449 8.42111 17.5455 8.42169 17.5461C8.60726 17.7327 8.82784 17.8809 9.0708 17.9821C9.31452 18.0836 9.57593 18.1359 9.83995 18.1359C10.104 18.1359 10.3654 18.0836 10.6091 17.9821C10.852 17.8809 11.0726 17.7327 11.2582 17.5461C11.2588 17.5455 11.2594 17.5449 11.2599 17.5443L19.4053 9.39901C19.6002 9.21486 19.7562 8.99331 19.8639 8.74752C19.9747 8.49452 20.0319 8.22131 20.0319 7.94511C20.0319 7.6689 19.9747 7.39569 19.8639 7.14269C19.756 6.89647 19.5997 6.67459 19.4042 6.49024C19.2216 6.31015 19.006 6.16682 18.7691 6.06812C18.5254 5.96658 18.264 5.91431 17.9999 5.91431C17.7359 5.91431 17.4745 5.96658 17.2308 6.06812C16.9877 6.16941 16.7669 6.31773 16.5813 6.50454C16.5809 6.50499 16.5804 6.50545 16.58 6.5059Z" fill="black" stroke="white" stroke-width="2"/>
</g>
</svg>